# xmcd CD database file
#
# Track frame offsets:
#	150
#	17873
#	30204
#	47075
#	66681
#	82346
#	101009
#	120009
#	134982
#	156593
#	174596
#	193001
#	214237
#	233786
#	250074
#	266539
#	285007
#	299368
#	322324
#	338683
#
# Disc length: 4743 seconds
#
# Revision: 0
# Processed by: cddbd v1.5.2PL0 Copyright (c) Steve Scherf et al.
# Submitted via: CDex 1.70beta3
#
DISCID=32128514
DTITLE=KING TWIN BEST SERIES - MINYOU BEST ge CD01
DYEAR=2010
DGENRE=Country
TTITLE0=01　日光和楽踊り
TTITLE1=02　草津湯もみ唄
TTITLE2=03　秩父音頭
TTITLE3=04　木更津甚句
TTITLE4=05　武田節
TTITLE5=06　伊那節
TTITLE6=07　相川音頭
TTITLE7=08　佐渡おけさ
TTITLE8=09　帆柱起し音頭
TTITLE9=10　山中節
TTITLE10=11　三国節
TTITLE11=12　郡上節
TTITLE12=13　下田節
TTITLE13=14　岡崎五万石
TTITLE14=15　伊勢音頭
TTITLE15=16　淡海節
TTITLE16=17　宮津節
TTITLE17=18　淀川三十石船舟唄
TTITLE18=19　酒造り祝い唄
TTITLE19=20　吉野川筏唄
EXTD=YEAR: 2010
EXTT0=
EXTT1=
EXTT2=
EXTT3=
EXTT4=
EXTT5=
EXTT6=
EXTT7=
EXTT8=
EXTT9=
EXTT10=
EXTT11=
EXTT12=
EXTT13=
EXTT14=
EXTT15=
EXTT16=
EXTT17=
EXTT18=
EXTT19=
PLAYORDER=
